<?xml version="1.0" standalone="no"?>
<!DOCTYPE svg PUBLIC "-//W3C//DTD SVG 20010904//EN"
 "http://www.w3.org/TR/2001/REC-SVG-20010904/DTD/svg10.dtd">
<svg version="1.0" xmlns="http://www.w3.org/2000/svg"
 width="225.000000pt" height="225.000000pt" viewBox="0 0 225.000000 225.000000"
 preserveAspectRatio="xMidYMid meet">
<metadata>
Created by potrace 1.16, written by Peter Selinger 2001-2019
</metadata>
<g transform="translate(0.000000,225.000000) scale(0.100000,-0.100000)"
fill="#000000" stroke="none">
<path d="M1025 2131 c-108 -20 -179 -45 -265 -93 -129 -72 -202 -158 -246
-289 -25 -72 -29 -99 -29 -194 0 -123 10 -250 24 -310 6 -22 9 -41 7 -42 -1
-1 -19 18 -40 42 -36 43 -56 56 -56 35 0 -5 5 -10 11 -10 16 0 39 -26 31 -35
-4 -5 -1 -5 5 -1 7 4 13 3 13 -1 0 -5 -6 -15 -13 -23 -10 -12 -9 -12 5 -1 15
11 19 7 37 -28 12 -22 21 -43 21 -45 0 -3 -13 -12 -29 -20 -32 -17 -53 -77
-40 -114 10 -28 109 -80 109 -57 0 9 -12 33 -27 55 -24 37 -25 43 -14 78 11
31 9 60 -10 182 -32 204 -32 380 0 475 33 99 61 144 131 209 62 57 132 100
144 89 3 -4 6 -2 6 4 0 12 83 48 161 68 63 17 82 19 75 6 -4 -5 10 -5 33 0 21
5 76 9 122 11 118 3 258 -44 359 -120 52 -39 109 -105 103 -117 -4 -5 -2 -7 2
-2 13 11 64 -77 92 -157 30 -87 39 -212 23 -321 -21 -145 -23 -160 -16 -154
10 9 36 208 36 279 0 158 -58 302 -167 420 -57 62 -82 80 -158 116 -164 77
-280 95 -440 65z"/>
<path d="M1425 1217 c-22 -13 -59 -37 -82 -54 -23 -16 -57 -36 -74 -43 -30
-13 -33 -12 -55 14 -30 34 -31 24 -2 -16 20 -28 24 -30 67 -24 35 5 43 4 33
-6 -7 -7 -12 -17 -12 -22 0 -6 7 0 16 12 18 25 62 53 49 30 -5 -7 3 -1 18 15
43 45 75 29 46 -25 -8 -15 -17 -19 -39 -14 -28 5 -28 5 -18 -25 12 -36 35 -49
83 -49 51 0 73 15 86 59 10 35 9 44 -10 76 l-21 36 22 -7 c29 -9 78 -43 78
-54 0 -5 -4 -21 -10 -37 -10 -28 -9 -27 20 6 28 33 29 36 12 54 -9 11 -35 28
-57 38 -37 17 -38 18 -15 23 14 3 48 7 75 8 l50 3 -53 13 c-84 19 -161 15
-207 -11z"/>
<path d="M1738 1204 c-3 -21 -1 -49 3 -62 14 -38 10 -89 -9 -122 -10 -16 -21
-28 -23 -26 -2 2 -5 -6 -5 -18 -2 -22 1 -23 35 -14 21 5 52 23 70 40 29 27 32
36 28 66 -8 47 -36 89 -48 71 -7 -11 -12 -10 -30 7 -17 18 -19 25 -10 43 8 13
9 27 3 38 -7 12 -11 7 -14 -23z"/>
<path d="M696 1209 c-54 -13 -60 -23 -10 -14 50 8 66 -8 25 -25 -16 -6 -37
-20 -46 -31 -17 -17 -16 -20 10 -51 l28 -33 -7 31 c-8 36 21 69 73 84 29 8 31
7 19 -7 -12 -15 -11 -15 9 -5 29 16 40 15 47 -3 3 -8 -6 -27 -19 -42 -19 -23
-26 -26 -36 -15 -21 20 -32 14 -24 -15 8 -35 40 -70 71 -77 38 -10 92 18 100
51 11 45 15 46 46 16 19 -18 27 -22 23 -10 -6 13 -2 17 18 17 14 0 35 8 48 19
l23 18 -32 -5 c-26 -3 -51 7 -123 48 -98 57 -162 70 -243 49z"/>
<path d="M606 770 c9 -51 68 -172 101 -204 21 -22 27 -35 24 -63 -1 -19 5 -67
14 -106 9 -40 18 -82 21 -95 7 -34 68 -97 139 -141 35 -22 80 -55 99 -72 20
-17 36 -26 36 -20 0 6 -3 11 -8 11 -4 0 -25 17 -48 38 -42 38 -48 42 -62 42
-17 0 -52 42 -45 53 5 8 2 8 -9 -1 -22 -18 -42 6 -24 30 12 16 16 14 51 -22
22 -22 46 -40 54 -40 11 0 9 5 -7 20 -31 30 -78 101 -86 133 -3 15 -4 27 -2
27 3 0 26 -13 53 -30 90 -55 204 -71 333 -45 35 7 97 -46 78 -66 -7 -8 -20
-23 -28 -34 -13 -17 -11 -16 23 4 21 13 41 21 44 17 9 -8 -25 -56 -70 -98 -22
-21 -36 -38 -32 -38 5 0 0 -10 -11 -22 -19 -24 38 24 64 52 7 8 11 10 8 4 -6
-13 99 7 115 23 18 18 -5 48 -84 106 -115 85 -114 79 -6 132 52 25 136 57 188
71 94 25 141 48 141 66 0 5 -7 2 -16 -6 -19 -19 -34 -21 -34 -3 0 7 -7 22 -16
33 -15 18 -15 18 -11 -8 2 -15 0 -25 -4 -22 -5 3 -9 11 -9 18 0 8 -7 19 -15
26 -14 12 -14 15 1 31 9 10 21 16 27 12 5 -3 7 -2 4 4 -3 5 4 25 17 44 24 35
51 107 44 115 -3 2 -10 -15 -17 -38 -26 -87 -99 -163 -267 -279 -41 -28 -71
-56 -67 -62 3 -6 1 -7 -6 -3 -6 4 -24 -2 -40 -14 -16 -11 -45 -27 -63 -35 -18
-8 -27 -14 -20 -15 7 0 23 5 34 11 13 7 23 8 30 1 7 -7 -9 -14 -47 -22 -110
-23 -280 25 -345 96 l-25 27 25 -15 c38 -24 128 -50 141 -42 8 4 9 3 5 -4 -4
-7 -1 -12 8 -12 25 0 29 -1 68 -21 21 -10 45 -19 55 -19 10 1 2 7 -19 14 -65
23 -270 151 -349 218 -63 53 -96 103 -131 196 -15 42 -26 61 -22 42z"/>
<path d="M1711 443 c-42 -83 -65 -156 -27 -85 l15 27 1 -33 c0 -18 -5 -53 -11
-78 -15 -59 -101 -138 -219 -198 -154 -80 -172 -76 334 -76 l446 0 0 84 c0 95
3 91 -92 142 -82 44 -66 44 23 0 38 -19 69 -31 69 -27 0 8 -85 49 -210 100
-97 40 -226 114 -265 151 -17 17 -34 30 -38 30 -4 0 -15 -17 -26 -37z"/>
<path d="M470 402 c0 -11 -52 -32 -145 -57 -75 -21 -171 -64 -257 -117 l-68
-40 0 -94 0 -94 470 0 c372 0 468 3 464 13 -3 6 -37 35 -77 62 -39 28 -91 76
-116 108 -25 31 -75 79 -111 105 -36 25 -67 49 -70 52 -20 22 -90 70 -90 62z"/>
</g>
</svg>
